<svg width="96" height="96" viewBox="0 0 96 96" fill="none" xmlns="http://www.w3.org/2000/svg">
<rect width="96" height="96" rx="32" fill="#F1BFBE"/>
<path d="M61.9999 40.848V38C61.9999 30.268 55.732 24 48 24C40.2679 24 34 30.268 34 38V40.848C30.3601 42.4366 28.0053 46.0285 28 50V62C28.0066 67.5201 32.4798 71.9934 37.9999 72H57.9999C63.52 71.9934 67.9933 67.5201 67.9999 62V50C67.9948 46.0285 65.6399 42.4366 61.9999 40.848ZM49.9999 58C49.9999 59.1046 49.1045 60 48 60C46.8954 60 46 59.1046 46 58V54C46 52.8954 46.8954 52 48 52C49.1045 52 49.9999 52.8954 49.9999 54V58ZM58 40H37.9999V38.0001C37.9999 32.4773 42.4771 28 48 28C53.5229 28 58 32.4772 58 38.0001V40Z" fill="white"/>
</svg>
