<svg width="96" height="96" viewBox="0 0 96 96" fill="none" xmlns="http://www.w3.org/2000/svg">
<rect width="96" height="96" rx="32" fill="#F1BFBE"/>
<g clip-path="url(#clip0_94_136)">
<path d="M53.5647 62.638C55.5227 63.502 57.6827 63.992 59.9567 63.998C59.9687 65.892 59.3367 67.744 58.0767 69.208C56.5467 70.984 54.3287 72 51.9887 72H32.0087C29.6687 72 27.4507 70.98 25.9227 69.204C24.4167 67.456 23.7487 65.156 24.0887 62.89C24.9007 57.492 27.8587 52.494 32.8907 48.002C27.8567 43.508 24.8987 38.51 24.0867 33.112C23.7467 30.846 24.4167 28.546 25.9207 26.798C27.4507 25.02 29.6687 24 32.0087 24H51.9887C54.3287 24 56.5467 25.016 58.0767 26.792C59.3367 28.254 59.9687 30.108 59.9567 32.002C51.1547 32.026 44.0007 39.192 44.0007 48C44.0007 49.312 44.1767 50.58 44.4767 51.802L43.2527 50.826C42.5227 50.246 41.4927 50.246 40.7627 50.822L39.3547 51.94C36.2407 54.402 32.1167 58.364 30.1447 63.252C29.8947 63.87 29.9707 64.568 30.3407 65.12C30.7127 65.67 31.3347 66 31.9987 66H51.9987C52.6647 66 53.2867 65.672 53.6567 65.12C54.0287 64.57 54.1027 63.868 53.8527 63.252C53.7687 63.042 53.6587 62.846 53.5667 62.64L53.5647 62.638ZM72.0007 48C72.0007 54.618 66.6187 60 60.0007 60C53.3827 60 48.0007 54.618 48.0007 48C48.0007 41.382 53.3827 36 60.0007 36C66.6187 36 72.0007 41.382 72.0007 48ZM64.4147 49.586L62.0007 47.172V43C62.0007 41.896 61.1047 41 60.0007 41C58.8967 41 58.0007 41.896 58.0007 43V48C58.0007 48.53 58.2107 49.04 58.5867 49.414L61.5867 52.414C61.9767 52.804 62.4887 53 63.0007 53C63.5127 53 64.0247 52.804 64.4147 52.414C65.1967 51.632 65.1967 50.368 64.4147 49.586ZM35.2927 61.998H48.6967C46.8487 59.14 44.0987 56.616 42.0007 54.944C39.9067 56.6 37.1367 59.134 35.2927 61.998Z" fill="white"/>
</g>
<defs>
<clipPath id="clip0_94_136">
<rect width="48" height="48" fill="white" transform="translate(24 24)"/>
</clipPath>
</defs>
</svg>
