<svg width="96" height="96" viewBox="0 0 96 96" fill="none" xmlns="http://www.w3.org/2000/svg">
<rect width="96" height="96" rx="32" fill="#F1BFBE"/>
<g clip-path="url(#clip0_94_85)">
<path d="M46.4806 72.0001C45.8253 71.9977 45.1784 71.8531 44.5846 71.5761C43.6146 71.1442 42.8356 70.3731 42.3937 69.4076C41.9518 68.4421 41.8775 67.3485 42.1846 66.3321L45.3066 56.0001H37.9506C37.0134 56.0012 36.089 55.7828 35.2514 55.3623C34.4138 54.9418 33.6864 54.331 33.1274 53.5788C32.5684 52.8265 32.1935 51.9538 32.0325 51.0305C31.8716 50.1073 31.9291 49.1591 32.2006 48.2621L38.2486 28.2621C38.6173 27.0251 39.3772 25.9409 40.4143 25.1725C41.4514 24.404 42.7098 23.9926 44.0006 24.0001H51.3866C52.2261 24.0008 53.053 24.2048 53.7965 24.5945C54.54 24.9843 55.1782 25.5483 55.6563 26.2383C56.1345 26.9283 56.4385 27.7239 56.5423 28.5569C56.6462 29.39 56.5467 30.2358 56.2526 31.0221L52.8866 40.0001H58.0006C59.0907 40 60.1602 40.2969 61.0943 40.8589C62.0284 41.4209 62.7917 42.2268 63.3023 43.1899C63.8128 44.1531 64.0514 45.2371 63.9922 46.3256C63.9331 47.4141 63.5785 48.4659 62.9666 49.3681L50.1666 69.9681C49.7709 70.5878 49.2262 71.0985 48.5823 71.4534C47.9384 71.8084 47.2158 71.9963 46.4806 72.0001Z" fill="white"/>
</g>
<defs>
<clipPath id="clip0_94_85">
<rect width="48" height="48" fill="white" transform="translate(24 24)"/>
</clipPath>
</defs>
</svg>
