<svg width="96" height="96" viewBox="0 0 96 96" fill="none" xmlns="http://www.w3.org/2000/svg">
<rect width="96" height="96" rx="32" fill="#F1BFBE"/>
<g clip-path="url(#clip0_94_153)">
<path d="M68.4 28.3263C67.2599 27.375 65.9222 26.6896 64.4841 26.3198C63.046 25.95 61.5436 25.9051 60.086 26.1883L56.558 27.0523C54.7169 27.3897 53.0524 28.362 51.8541 29.8C50.6559 31.2379 49.9998 33.0505 50 34.9223V65.8563C48.6737 66.0503 47.3263 66.0503 46 65.8563V34.9223C46.0066 33.0678 45.3657 31.2691 44.1878 29.8367C43.0099 28.4043 41.3689 27.428 39.548 27.0763L35.8 26.1643C34.3583 25.9005 32.8763 25.9568 31.4588 26.3293C30.0412 26.7017 28.7229 27.3812 27.5971 28.3196C26.4713 29.258 25.5656 30.4325 24.944 31.7597C24.3224 33.087 24.0001 34.5347 24 36.0003V57.5863C24.0001 59.9279 24.822 62.1952 26.3223 63.993C27.8226 65.7909 29.9062 67.0052 32.21 67.4243L44.782 69.7103C46.9099 70.097 49.0901 70.097 51.218 69.7103L63.8 67.4243C66.1019 67.0031 68.1833 65.7879 69.6816 63.9903C71.1799 62.1926 72.0003 59.9265 72 57.5863V36.0003C72.0009 34.5352 71.6788 33.0879 71.0565 31.7615C70.4343 30.4351 69.5273 29.2622 68.4 28.3263Z" fill="white"/>
</g>
<defs>
<clipPath id="clip0_94_153">
<rect width="48" height="48" fill="white" transform="translate(24 24)"/>
</clipPath>
</defs>
</svg>
