<svg width="96" height="96" viewBox="0 0 96 96" fill="none" xmlns="http://www.w3.org/2000/svg">
<rect width="96" height="96" rx="32" fill="#F1BFBE"/>
<g clip-path="url(#clip0_94_93)">
<path d="M24 40V38C24 32.486 28.486 28 34 28H36V26C36 24.896 36.894 24 38 24C39.106 24 40 24.896 40 26V28H56V26C56 24.896 56.894 24 58 24C59.106 24 60 24.896 60 26V28H62C67.514 28 72 32.486 72 38V40H24ZM72 44V62C72 67.514 67.514 72 62 72H34C28.486 72 24 67.514 24 62V44H72ZM59.664 50.304C58.896 49.51 57.632 49.486 56.836 50.252L47.328 59.416C46.576 60.168 45.314 60.224 44.45 59.364L39.894 55.13C39.088 54.38 37.824 54.422 37.068 55.234C36.316 56.042 36.362 57.308 37.172 58.06L41.676 62.244C42.808 63.378 44.316 64.002 45.918 64.002C47.52 64.002 49.03 63.378 50.134 62.27L59.614 53.134C60.408 52.368 60.432 51.098 59.664 50.304Z" fill="white"/>
</g>
<defs>
<clipPath id="clip0_94_93">
<rect width="48" height="48" fill="white" transform="translate(24 24)"/>
</clipPath>
</defs>
</svg>
