<svg width="96" height="96" viewBox="0 0 96 96" fill="none" xmlns="http://www.w3.org/2000/svg">
<rect width="96" height="96" rx="32" fill="#F1BFBE"/>
<path d="M40 32H32C29.8783 32 27.8434 32.8429 26.3431 34.3431C24.8429 35.8434 24 37.8783 24 40V48C24 49.0609 24.4214 50.0783 25.1716 50.8284C25.9217 51.5786 26.9391 52 28 52H39.82C39.3455 54.7931 37.899 57.3285 35.7361 59.1584C33.5732 60.9883 30.8331 61.9947 28 62C27.4696 62 26.9609 62.2107 26.5858 62.5858C26.2107 62.9609 26 63.4696 26 64C26 64.5304 26.2107 65.0391 26.5858 65.4142C26.9609 65.7893 27.4696 66 28 66C32.242 65.9952 36.3089 64.308 39.3084 61.3084C42.308 58.3089 43.9952 54.242 44 50V36C44 34.9391 43.5786 33.9217 42.8284 33.1716C42.0783 32.4214 41.0609 32 40 32Z" fill="white"/>
<path d="M68 32H60C57.8783 32 55.8434 32.8429 54.3431 34.3431C52.8429 35.8434 52 37.8783 52 40V48C52 49.0609 52.4214 50.0783 53.1716 50.8284C53.9217 51.5786 54.9391 52 56 52H67.82C67.3455 54.7931 65.899 57.3285 63.7361 59.1584C61.5732 60.9883 58.8331 61.9947 56 62C55.4696 62 54.9609 62.2107 54.5858 62.5858C54.2107 62.9609 54 63.4696 54 64C54 64.5304 54.2107 65.0391 54.5858 65.4142C54.9609 65.7893 55.4696 66 56 66C60.242 65.9952 64.3089 64.308 67.3084 61.3084C70.308 58.3089 71.9952 54.242 72 50V36C72 34.9391 71.5786 33.9217 70.8284 33.1716C70.0783 32.4214 69.0609 32 68 32Z" fill="white"/>
</svg>
