<svg width="96" height="96" viewBox="0 0 96 96" fill="none" xmlns="http://www.w3.org/2000/svg">
<rect width="96" height="96" rx="32" fill="#F1BFBE"/>
<g clip-path="url(#clip0_94_120)">
<path d="M47.9991 24.084C42.707 24.0898 37.6333 26.1945 33.891 29.9364C30.1487 33.6784 28.0435 38.7519 28.0371 44.044C28.0371 49.184 32.0171 57.228 39.8671 67.952C40.8016 69.2322 42.0252 70.2738 43.4383 70.9918C44.8514 71.7098 46.4141 72.0841 47.9991 72.0841C49.5842 72.0841 51.1468 71.7098 52.5599 70.9918C53.973 70.2738 55.1966 69.2322 56.1311 67.952C63.9811 57.228 67.9611 49.184 67.9611 44.044C67.9548 38.7519 65.8495 33.6784 62.1072 29.9364C58.365 26.1945 53.2912 24.0898 47.9991 24.084ZM47.9991 52C46.4169 52 44.8701 51.5308 43.5545 50.6517C42.239 49.7727 41.2136 48.5233 40.6081 47.0615C40.0026 45.5996 39.8441 43.9911 40.1528 42.4393C40.4615 40.8874 41.2234 39.462 42.3423 38.3431C43.4611 37.2243 44.8865 36.4624 46.4384 36.1537C47.9902 35.845 49.5988 36.0034 51.0606 36.609C52.5224 37.2145 53.7718 38.2398 54.6509 39.5554C55.5299 40.871 55.9991 42.4177 55.9991 44C55.9991 46.1217 55.1563 48.1566 53.656 49.6568C52.1557 51.1571 50.1208 52 47.9991 52Z" fill="white"/>
</g>
<defs>
<clipPath id="clip0_94_120">
<rect width="48" height="48" fill="white" transform="translate(24 24)"/>
</clipPath>
</defs>
</svg>
