<svg width="96" height="96" viewBox="0 0 96 96" fill="none" xmlns="http://www.w3.org/2000/svg">
<rect width="96" height="96" rx="32" fill="#F1BFBE"/>
<g clip-path="url(#clip0_94_256)">
<path d="M68.4 28.3258C67.2599 27.3745 65.9222 26.6891 64.4841 26.3193C63.046 25.9495 61.5436 25.9046 60.086 26.1878L56.558 27.0518C54.7169 27.3892 53.0524 28.3615 51.8541 29.7995C50.6559 31.2374 49.9998 33.05 50 34.9218V65.8558C48.6737 66.0498 47.3263 66.0498 46 65.8558V34.9218C46.0066 33.0673 45.3657 31.2686 44.1878 29.8362C43.0099 28.4038 41.3689 27.4275 39.548 27.0758L35.8 26.1638C34.3583 25.9 32.8763 25.9563 31.4588 26.3288C30.0412 26.7012 28.7229 27.3807 27.5971 28.3191C26.4713 29.2575 25.5656 30.432 24.944 31.7592C24.3224 33.0865 24.0001 34.5342 24 35.9998V57.5858C24.0001 59.9274 24.822 62.1947 26.3223 63.9925C27.8226 65.7904 29.9062 67.0047 32.21 67.4238L44.782 69.7098C46.9099 70.0965 49.0901 70.0965 51.218 69.7098L63.8 67.4238C66.1019 67.0026 68.1833 65.7874 69.6816 63.9898C71.1799 62.1922 72.0003 59.926 72 57.5858V35.9998C72.0009 34.5347 71.6788 33.0874 71.0565 31.761C70.4343 30.4346 69.5273 29.2617 68.4 28.3258Z" fill="white"/>
</g>
<defs>
<clipPath id="clip0_94_256">
<rect width="48" height="48" fill="white" transform="translate(24 24)"/>
</clipPath>
</defs>
</svg>
