<svg width="96" height="96" viewBox="0 0 96 96" fill="none" xmlns="http://www.w3.org/2000/svg">
<rect width="96" height="96" rx="32" fill="#F1BFBE"/>
<path d="M71.908 35.084L55.072 51.92C53.1947 53.7925 50.6515 54.8441 48 54.8441C45.3485 54.8441 42.8053 53.7925 40.928 51.92L24.092 35.084C24.064 35.4 24 35.686 24 36V60C24.0032 62.6512 25.0578 65.1929 26.9324 67.0675C28.8071 68.9422 31.3488 69.9968 34 70H62C64.6512 69.9968 67.1929 68.9422 69.0676 67.0675C70.9422 65.1929 71.9968 62.6512 72 60V36C72 35.686 71.936 35.4 71.908 35.084Z" fill="white"/>
<path d="M52.2443 49.092L70.5123 30.822C69.6273 29.3546 68.3792 28.1401 66.8882 27.2955C65.3973 26.4508 63.7138 26.0047 62.0003 26H34.0003C32.2867 26.0047 30.6033 26.4508 29.1123 27.2955C27.6214 28.1401 26.3732 29.3546 25.4883 30.822L43.7563 49.092C44.8834 50.2146 46.4094 50.8449 48.0003 50.8449C49.5911 50.8449 51.1171 50.2146 52.2443 49.092Z" fill="white"/>
</svg>
