<svg width="96" height="96" viewBox="0 0 96 96" fill="none" xmlns="http://www.w3.org/2000/svg">
<rect width="96" height="96" rx="32" fill="#F1BFBE"/>
<g clip-path="url(#clip0_158_1683)">
<path d="M48.0011 24.084C42.7089 24.0898 37.6352 26.1945 33.8929 29.9364C30.1507 33.6784 28.0454 38.7519 28.0391 44.044C28.0391 49.184 32.0191 57.228 39.8691 67.952C40.8036 69.2322 42.0272 70.2738 43.4403 70.9918C44.8534 71.7098 46.416 72.0841 48.0011 72.0841C49.5861 72.0841 51.1488 71.7098 52.5619 70.9918C53.9749 70.2738 55.1985 69.2322 56.1331 67.952C63.9831 57.228 67.9631 49.184 67.9631 44.044C67.9567 38.7519 65.8515 33.6784 62.1092 29.9364C58.3669 26.1945 53.2932 24.0898 48.0011 24.084ZM48.0011 52C46.4188 52 44.8721 51.5308 43.5565 50.6517C42.2409 49.7727 41.2155 48.5233 40.61 47.0615C40.0045 45.5996 39.8461 43.9911 40.1548 42.4393C40.4635 40.8874 41.2254 39.462 42.3442 38.3431C43.463 37.2243 44.8885 36.4624 46.4403 36.1537C47.9922 35.845 49.6007 36.0034 51.0625 36.609C52.5243 37.2145 53.7738 38.2398 54.6528 39.5554C55.5319 40.871 56.0011 42.4177 56.0011 44C56.0011 46.1217 55.1582 48.1566 53.6579 49.6568C52.1576 51.1571 50.1228 52 48.0011 52Z" fill="white"/>
</g>
<defs>
<clipPath id="clip0_158_1683">
<rect width="48" height="48" fill="white" transform="translate(24 24)"/>
</clipPath>
</defs>
</svg>
