<svg width="48" height="48" viewBox="0 0 48 48" fill="none" xmlns="http://www.w3.org/2000/svg">
<path d="M16 8H8C5.87827 8 3.84344 8.84285 2.34315 10.3431C0.842855 11.8434 0 13.8783 0 16L0 24C0 25.0609 0.421427 26.0783 1.17157 26.8284C1.92172 27.5786 2.93913 28 4 28H15.82C15.3455 30.7931 13.899 33.3285 11.7361 35.1584C9.57317 36.9883 6.8331 37.9947 4 38C3.46957 38 2.96086 38.2107 2.58579 38.5858C2.21071 38.9609 2 39.4696 2 40C2 40.5304 2.21071 41.0391 2.58579 41.4142C2.96086 41.7893 3.46957 42 4 42C8.242 41.9952 12.3089 40.308 15.3084 37.3084C18.308 34.3089 19.9952 30.242 20 26V12C20 10.9391 19.5786 9.92172 18.8284 9.17157C18.0783 8.42143 17.0609 8 16 8Z" fill="white"/>
<path d="M44 8H36C33.8783 8 31.8434 8.84285 30.3431 10.3431C28.8429 11.8434 28 13.8783 28 16V24C28 25.0609 28.4214 26.0783 29.1716 26.8284C29.9217 27.5786 30.9391 28 32 28H43.82C43.3455 30.7931 41.899 33.3285 39.7361 35.1584C37.5732 36.9883 34.8331 37.9947 32 38C31.4696 38 30.9609 38.2107 30.5858 38.5858C30.2107 38.9609 30 39.4696 30 40C30 40.5304 30.2107 41.0391 30.5858 41.4142C30.9609 41.7893 31.4696 42 32 42C36.242 41.9952 40.3089 40.308 43.3084 37.3084C46.308 34.3089 47.9952 30.242 48 26V12C48 10.9391 47.5786 9.92172 46.8284 9.17157C46.0783 8.42143 45.0609 8 44 8Z" fill="white"/>
</svg>
