<svg width="96" height="96" viewBox="0 0 96 96" fill="none" xmlns="http://www.w3.org/2000/svg">
<rect width="96" height="96" rx="32" fill="#F1BFBE"/>
<g clip-path="url(#clip0_94_233)">
<path d="M46.2442 49.0722C45.687 48.5146 45.0254 48.0723 44.2972 47.7706C43.569 47.4688 42.7884 47.3135 42.0002 47.3135C41.2119 47.3135 40.4314 47.4688 39.7032 47.7706C38.975 48.0723 38.3134 48.5146 37.7562 49.0722L24.0762 62.7522C24.2611 65.2604 25.386 67.6063 27.2259 69.3209C29.0658 71.0355 31.4852 71.9924 34.0002 72.0002H62.0002C63.9596 71.9998 65.8752 71.4202 67.5062 70.3342L46.2442 49.0722Z" fill="white"/>
<path d="M60 40C62.2091 40 64 38.2091 64 36C64 33.7909 62.2091 32 60 32C57.7909 32 56 33.7909 56 36C56 38.2091 57.7909 40 60 40Z" fill="white"/>
<path d="M62 24H34C31.3488 24.0032 28.8071 25.0578 26.9324 26.9324C25.0578 28.8071 24.0032 31.3488 24 34L24 57.172L34.928 46.244C35.8566 45.3151 36.9591 44.5783 38.1726 44.0756C39.386 43.5729 40.6866 43.3141 42 43.3141C43.3134 43.3141 44.614 43.5729 45.8274 44.0756C47.0409 44.5783 48.1434 45.3151 49.072 46.244L70.334 67.506C71.42 65.875 71.9996 63.9594 72 62V34C71.9968 31.3488 70.9422 28.8071 69.0676 26.9324C67.1929 25.0578 64.6512 24.0032 62 24ZM60 44C58.4178 44 56.871 43.5308 55.5554 42.6518C54.2398 41.7727 53.2145 40.5233 52.609 39.0615C52.0035 37.5997 51.845 35.9911 52.1537 34.4393C52.4624 32.8874 53.2243 31.462 54.3431 30.3431C55.462 29.2243 56.8874 28.4624 58.4393 28.1537C59.9911 27.845 61.5997 28.0035 63.0615 28.609C64.5233 29.2145 65.7727 30.2398 66.6518 31.5554C67.5308 32.871 68 34.4178 68 36C68 38.1217 67.1571 40.1566 65.6569 41.6569C64.1566 43.1571 62.1217 44 60 44Z" fill="white"/>
</g>
<defs>
<clipPath id="clip0_94_233">
<rect width="48" height="48" fill="white" transform="translate(24 24)"/>
</clipPath>
</defs>
</svg>
