<svg width="1504" height="211" viewBox="0 0 1504 211" fill="none" xmlns="http://www.w3.org/2000/svg">
<path d="M13.4297 194.996C13.4297 166.061 13.4297 124.412 13.4297 95.4767C13.4297 95.4767 18.6813 95.4767 27.1496 95.4767C47.1713 95.4161 67.193 95.4767 87.2148 95.4767C96.799 95.4767 101.788 90.9365 101.788 82.0984C101.788 63.8168 102.051 31.6732 101.722 13.3916L116.952 13.3911C137.696 13.8149 158.505 13.5122 179.315 13.5122C187.586 13.5122 192.838 13.5115 192.838 13.5115C192.903 32.0958 192.838 63.0904 192.838 81.6747C192.838 90.9365 197.696 95.4161 207.674 95.4161C229.008 95.4161 250.343 95.4161 271.678 95.4161C278.045 95.4161 286.508 95.4161 286.508 95.4161C286.311 96.7479 280.277 106.736 279.555 107.947C257.958 144.631 236.295 181.315 214.698 218C211.087 224.174 209.623 227.201 209.623 227.201C185.794 227.201 134.601 227.313 110.772 227.313C110.772 227.313 114.129 221.571 118.265 214.549C138.352 180.407 158.243 146.205 178.724 112.305C184.37 102.922 179.643 97.1717 169.074 97.5349C152.597 98.1402 136.055 97.7165 119.512 97.7165C109.14 97.7165 104.217 102.317 104.217 111.821C104.217 168.24 104.217 224.598 104.283 281.017C104.283 286.041 104.283 294.524 104.283 294.524C104.283 294.524 93.7137 294.455 91.5474 294.455C69.7532 294.577 35.2239 294.516 13.4297 294.516C13.4297 294.516 13.4297 289.673 13.4297 282.712C13.4297 253.473 13.4297 224.235 13.4297 194.996Z" fill="white"/>
<path d="M661.94 294.609H602.862V95.7202H661.94V294.609Z" fill="white"/>
<path d="M1005.42 151.123L1042.49 95.7202H1107.78L1040.49 195.161L1107.78 294.609H1042.49L1005.42 239.206L968.358 294.609H902.782L970.069 195.161L902.782 95.7202H968.358L1005.42 151.123Z" fill="white"/>
<path fill-rule="evenodd" clip-rule="evenodd" d="M507.839 95.7202C606.469 96.0066 608.179 241.087 507.839 239.67H404.017V294.465H344.723V95.7202H507.839ZM404.017 189.701H507.839C528.076 189.698 528.36 145.692 507.269 145.689H404.017V189.701Z" fill="white"/>
<path d="M882.37 154.516H850.956C829.3 154.517 811.739 171.996 811.739 193.559V224.546H780.607C758.952 224.548 741.403 242.034 741.403 263.595V294.465H682.358V235.675H713.477C735.132 235.674 752.693 218.187 752.694 196.626V165.763H784.108C805.764 165.763 823.325 148.276 823.325 126.714V95.7202H882.37V154.516Z" fill="white"/>
<path d="M882.383 294.465H823.332V237.937C823.333 237.334 823.579 236.755 824.007 236.329C824.436 235.903 825.015 235.663 825.62 235.662H882.383V294.465Z" fill="white"/>
<path d="M1284.93 145.689H1187.47V170.111H1252.4V220.08H1187.92V244.496H1288.36V294.465H1128.57V95.7202H1284.93V145.689Z" fill="white"/>
<path d="M1431.23 195.096V95.7202H1490.57V294.465H1431.23L1365.04 195.096V294.465H1305.7V95.7202H1365.04L1431.23 195.096Z" fill="white"/>
<path d="M741.397 152.241C741.395 152.843 741.155 153.424 740.728 153.849C740.3 154.274 739.719 154.515 739.115 154.516H682.352V95.7202H741.397V152.241Z" fill="white"/>
</svg>
