<svg width="96" height="96" viewBox="0 0 96 96" fill="none" xmlns="http://www.w3.org/2000/svg">
<rect width="96" height="96" rx="32" fill="#F1BFBE"/>
<path d="M57.458 59.662C58.63 60.834 58.63 62.734 57.458 63.904C56.286 65.076 54.386 65.076 53.216 63.904L43.948 54.636C43.166 53.854 41.9 53.854 41.12 54.636C40.338 55.418 40.338 56.684 41.12 57.464L49.542 65.886C50.714 67.058 50.714 68.958 49.542 70.128C48.37 71.3 46.47 71.3 45.3 70.128L35.954 60.782C30.042 55.014 24 47.324 24 40C24 32.28 29.832 26 37 26C40.546 26 43.262 27.324 45.33 28.794L38.052 36.01C36.728 37.332 36 39.092 36 40.962C36 42.832 36.728 44.59 38.048 45.91C39.37 47.234 41.128 47.962 43 47.962C43.852 47.962 44.674 47.792 45.45 47.504L57.46 59.664L57.458 59.662ZM52.842 41.05L48.658 45.206L60.878 57.242C62.05 58.414 63.95 58.414 65.12 57.242C66.912 55.45 65.378 53.466 65.378 53.466L52.842 41.05ZM58.914 26.116C55.646 26.136 52.542 27.556 50.15 29.784L40.876 38.996C39.704 40.168 39.704 42.068 40.876 43.238C42.048 44.41 43.948 44.41 45.118 43.238L50.112 38.278C51.672 36.728 54.188 36.728 55.75 38.278L68.398 50.834C70.78 46.99 71.996 43.39 71.996 40.116C71.996 32.396 66.08 26.116 58.912 26.116H58.914Z" fill="white"/>
</svg>
